<?xml version="1.0" standalone="no"?><!DOCTYPE svg PUBLIC "-//W3C//DTD SVG 1.1//EN" "http://www.w3.org/Graphics/SVG/1.1/DTD/svg11.dtd"><svg t="1569728791571" class="icon" viewBox="0 0 1024 1024" version="1.1" xmlns="http://www.w3.org/2000/svg" p-id="1896" width="128" height="128" xmlns:xlink="http://www.w3.org/1999/xlink"><defs><style type="text/css"></style></defs><path d="M506.368 675.328A163.328 163.328 0 1 0 343.04 512a163.84 163.84 0 0 0 163.328 163.328zM124.928 512a417.792 417.792 0 0 1 7.68-80.384A142.848 142.848 0 0 0 242.176 358.4a153.6 153.6 0 0 0 5.632-138.752 377.344 377.344 0 0 1 142.848-87.04 139.776 139.776 0 0 0 235.008 0A377.856 377.856 0 0 1 768 220.672 153.6 153.6 0 0 0 774.656 358.4a142.848 142.848 0 0 0 104.96 71.68 418.816 418.816 0 0 1-3.072 175.104 143.36 143.36 0 0 0-102.4 73.216 153.6 153.6 0 0 0-10.752 125.952 377.856 377.856 0 0 1-146.432 88.064 139.264 139.264 0 0 0-219.648 0 376.832 376.832 0 0 1-146.432-86.016 153.6 153.6 0 0 0-9.728-129.024 142.848 142.848 0 0 0-106.496-73.728A416.768 416.768 0 0 1 124.928 512z" fill="" p-id="1897"></path></svg>